<?xml version="1.0" encoding="utf-8"?>
<!-- Generator: Adobe Illustrator 20.1.0, SVG Export Plug-In . SVG Version: 6.00 Build 0)  -->
<svg version="1.1" id="Layer_1" xmlns="http://www.w3.org/2000/svg" xmlns:xlink="http://www.w3.org/1999/xlink" x="0px" y="0px"
	 viewBox="0 0 100 100" style="enable-background:new 0 0 100 100;" xml:space="preserve">
<style type="text/css">
	.st0{fill:#F79520;}
	.st1{fill:none;stroke:#FFFFFF;stroke-miterlimit:10;}
	.st2{fill:#FFFFFF;}
</style>
<g>
	<circle class="st0" cx="49.8" cy="52.4" r="38.3"/>
	<g>
		<path class="st1" d="M37.4,53.1c0,0-2.3,7,6.8,12.8h11.6c0,0,7.4-3.5,7-12.8H37.4z"/>
		<path class="st2" d="M63.1,49.5c0,0.6-0.5,1.1-1.2,1.1H38.1c-0.6,0-1.2-0.5-1.2-1.1l0,0c0-0.6,4-1.1,4.6-1.1h17.9
			C60.1,48.4,63.1,48.9,63.1,49.5L63.1,49.5z"/>
		<polygon class="st2" points="58.3,79.4 43.4,79.4 44.7,67.2 56.4,67.2 		"/>
		<path class="st2" d="M58.9,45.5H40.5c0,0-2.7-13.7,0-17.1c2.9-3.6,15.2-3.3,18.4,0C61.9,31.5,58.9,45.5,58.9,45.5z"/>
	</g>
</g>
</svg>
